ply
format ascii 1.0
element vertex 570
property float x
property float y
property float z
end_header
1.05749 0.390306 -0.221252
0.964878 0.37293 -0.100199
1.13222 0.211008 -0.165488
1.05842 0.202313 -0.0981687
1.14818 0.336154 -0.0680784
1.13823 0.543565 0.274986
1.07716 0.496784 0.158866
0.758639 0.268861 -0.0571855
0.842479 0.323513 0.0765227
1.07912 0.448424 -0.209583
1.30427 -0.138986 -0.409965
1.01821 -0.0142117 -0.170392
0.99851 0.124474 -0.233538
0.945874 0.0542065 -0.052387
0.933795 0.454845 0.258552
0.884492 0.207396 -0.0252873
0.945076 0.305171 -0.209539
0.964307 0.372317 -0.098734
0.950255 0.356668 0.0096627
1.04385 0.434477 -0.203494
1.04417 0.480559 0.153113
1.02503 0.109263 -0.170754
1.03992 -0.107162 -0.328527
1.06253 0.215888 -0.163654
0.988881 0.123673 -0.232964
0.98566 0.186954 -0.141936
1.13178 0.397628 -0.0865386
0.956245 0.145385 0.136291
0.942918 0.112754 0.0263488
1.09635 0.501498 0.161174
0.850698 0.327795 0.0810654
0.936767 0.303109 -0.208777
1.10342 0.405928 -0.22935
0.776906 -0.152842 -0.170088
1.02922 0.19974 0.0640268
0.896607 0.210405 -0.0251713
0.860311 0.14308 0.153599
0.871258 0.225286 0.204479
1.45774 0.607736 -0.277976
0.933297 0.228556 0.0552032
0.95902 0.434336 0.261814
1.07462 0.202832 -0.16319
0.989672 0.380006 0.0176592
0.997402 0.49371 0.242968
0.939168 0.111815 0.0260135
0.959599 0.25899 -0.075642
0.982506 0.192753 -0.0903075
1.00485 0.0488039 -0.317722
1.23597 0.626572 -0.232863
0.875547 0.0935986 0.0767675
1.00351 0.384581 0.0175117
1.10024 0.525758 -0.166003
0.958965 0.373829 -0.193986
0.972777 0.217423 0.0538111
1.027 0.19891 0.0639882
1.10277 0.376632 -0.0795418
0.878215 0.337433 0.0829274
0.941604 0.42718 0.258343
0.914822 0.444859 0.251081
0.886262 0.249271 0.253433
0.952575 -0.0963929 -0.301302
0.902 0.271461 -0.211727
1.20754 0.422002 -0.0923395
0.954894 0.371475 -0.100281
0.986719 0.544211 -0.0558297
1.1005 0.0503809 -0.348269
1.20502 0.333208 -0.303889
0.956305 0.258591 -0.0760035
1.12308 0.144449 -0.182717
1.01176 0.386826 0.0165418
0.957881 0.213477 0.0520759
0.950979 0.185334 0.0577716
0.782754 0.217344 0.204399
1.09026 0.49773 0.160312
0.931423 0.514964 -0.0536469
1.21746 -0.0330211 -0.400403
1.29957 0.446952 -0.168491
0.958259 0.437226 0.255573
0.939982 0.254483 -0.0744539
0.876081 0.133233 0.122034
1.05869 0.207819 -0.182366
1.0372 0.0181832 -0.200532
1.22047 0.42669 -0.0949408
1.10592 0.141675 -0.179136
1.29484 0.445641 -0.168892
1.06705 0.209453 -0.183764
1.1086 -0.0277656 -0.365023
1.07994 0.492046 0.158364
0.94988 0.112953 0.0262236
0.836855 0.167234 -0.0903563
0.820869 0.316835 0.0776414
0.859089 0.236275 0.225143
1.03802 0.0484619 -0.328914
1.20219 0.439147 -0.127331
0.988549 -0.00910773 -0.0971122
1.11647 0.150744 -0.160615
0.846897 0.169451 -0.0913243
0.52492 -0.242131 0.0952426
0.510748 -0.247803 0.0967096
0.524617 -0.291353 0.0202906
0.514747 -0.251985 0.0889963
0.488041 -0.246435 0.110776
0.526526 -0.24522 0.0865495
0.555254 -0.310246 -0.0486463
0.56676 -0.299856 -0.0330843
0.531185 -0.295539 0.0214545
0.528884 -0.284737 0.0236474
0.581854 -0.328742 -0.104166
0.530269 -0.245017 0.0962118
0.530906 -0.279289 0.0162853
0.526829 -0.287368 0.0254347
0.517822 -0.275881 0.054029
0.508298 -0.238796 0.11087
0.499236 -0.300421 0.0904784
0.468063 -0.279847 0.126166
0.569723 -0.318095 -0.0489335
0.510218 -0.267017 0.038479
0.501822 -0.232428 0.107958
0.57227 -0.289094 -0.0367233
0.533128 -0.239313 0.107895
0.609342 -0.349674 -0.127828
0.688043 -0.333365 0.154292
0.57928 -0.252218 -0.110334
0.539656 -0.223124 -0.0363808
0.662699 -0.309809 -0.110909
0.675563 -0.285822 -0.0836809
0.526245 -0.255297 0.0936536
0.56943 -0.316113 -0.0955619
0.559209 -0.310371 -0.0464343
0.990063 0.223803 0.0534069
0.708151 -0.227809 -0.138712
0.79346 -0.156801 -0.172621
0.844847 -0.221656 -0.204778
0.752441 -0.135668 -0.230969
0.726773 -0.250323 -0.124374
0.906362 -0.105214 -0.230936
0.87717 0.226664 0.204511
0.851303 -0.159259 -0.261125
0.451607 -0.248845 0.134241
0.525799 -0.233362 0.111515
0.993323 0.341788 0.0792125
0.860068 -0.185049 -0.237671
0.838452 -0.151498 -0.25358
0.920798 0.355522 0.0111292
1.28386 0.165833 -0.398185
0.510356 -0.163606 0.124667
1.01856 0.496837 -0.172521
1.04915 0.306717 -0.0616595
0.864116 -0.141605 -0.281659
0.545223 -0.261961 0.044585
0.480649 -0.282736 0.128059
0.522193 -0.280172 0.0539659
0.516037 -0.251974 0.0897113
0.51802 -0.238311 0.0936473
0.761726 -0.325469 -0.0514989
0.402235 -0.0637871 0.0293274
0.800358 -0.244311 0.0435742
0.511407 -0.132487 0.127272
0.837084 -0.221058 -0.0460734
0.544279 -0.164235 0.0233491
0.497429 -0.120462 0.0608922
0.521778 -0.109052 0.0993192
0.563434 -0.204851 0.0285749
0.495855 -0.103233 0.0324767
0.507495 -0.184037 0.0944591
0.494473 -0.120256 0.0451305
0.51868 -0.167115 0.126653
0.505587 -0.243192 0.095296
0.504549 -0.266489 0.0271098
0.507177 -0.267258 0.0531723
0.512824 -0.244169 0.114592
0.567981 -0.32872 -0.0895736
0.527608 -0.290743 0.022121
0.915695 0.178578 -0.0812729
0.980217 0.0472031 -0.0794114
0.864698 -0.0547468 -0.140481
1.17678 0.025966 -0.352131
0.889273 -0.153385 -0.221002
0.743019 0.0501186 0.170627
1.10072 0.0434774 -0.299216
0.469831 -0.119516 0.0563333
0.975577 0.0885004 0.0296636
1.0987 0.321675 -0.0668526
1.2226 0.167004 -0.321374
0.971853 0.378185 -0.105285
0.557997 -0.337412 -0.0790909
0.507036 -0.267182 0.0816657
0.518283 -0.272298 0.0791875
0.59568 0.0174808 0.172311
0.823483 0.0264074 0.0251496
0.679626 0.106182 0.22299
0.673998 0.104394 0.220224
0.909714 0.152555 0.155675
0.800465 -0.197589 0.00302749
0.713165 -0.236597 -0.0146441
0.796484 -0.197495 0.00379395
0.430214 -0.256854 0.0797044
0.437829 -0.263769 0.081383
0.723009 -0.100072 0.169306
0.836678 0.164844 0.210047
0.988998 0.27065 0.0798526
1.21912 0.444458 -0.128863
0.962206 0.0468052 -0.0771959
0.942871 0.217549 0.0324601
0.605631 -0.347809 -0.119611
0.447411 -0.245795 0.132578
0.490911 -0.215275 0.144345
0.588847 -0.341202 -0.12081
0.579884 -0.330371 -0.110485
0.869811 0.313267 0.309278
0.554201 -0.33902 -0.0708172
0.49131 -0.248481 0.11172
0.961619 0.104428 -0.160292
1.08992 0.0200844 -0.209782
0.499627 -0.115865 0.0603374
0.842661 -0.179353 -0.234157
1.13887 0.412138 -0.115035
0.971232 0.34305 0.0749808
1.04877 0.516823 0.255879
0.594749 -0.0960457 0.142819
0.490125 -0.230787 0.10694
0.561871 -0.326184 -0.0992972
0.574246 -0.327554 -0.112014
0.515249 -0.214967 0.0910873
0.493687 -0.232415 0.107547
0.58571 -0.329763 -0.0509467
0.456532 -0.268203 0.0824518
0.493844 -0.26554 0.114285
0.529184 -0.285084 0.0241398
0.453685 -0.270907 0.122022
0.539833 -0.286495 0.0241227
0.522761 -0.225601 0.0710945
0.522077 -0.240934 0.0942889
0.914186 0.354041 -0.00626135
1.04097 0.389103 -0.195179
0.947965 0.428967 0.256603
0.692652 -0.22336 -0.166559
0.927853 0.336198 0.239955
0.74951 0.0517578 0.173103
0.822373 0.154231 0.197572
0.977172 0.43868 0.261577
0.831013 0.190247 0.228229
0.664716 -0.226078 -0.078444
0.512894 -0.143473 0.0220309
1.04729 0.406202 -0.218112
0.510447 -0.30712 0.024077
0.514656 -0.21491 0.091088
0.533412 -0.133304 0.0716205
0.785135 -0.183218 0.067262
0.730961 -0.068685 0.0361999
0.594285 -0.301001 -0.0442504
0.689231 0.109298 0.2268
1.02429 0.241157 -0.0244509
0.841494 0.0668572 0.0635238
0.661932 -0.26007 0.133211
0.525795 -0.259582 0.0903468
0.457753 -0.268969 0.0771243
0.456992 -0.267932 0.0774407
0.568743 -0.339605 -0.0932123
1.27712 0.437587 -0.163137
0.931329 0.103711 0.0911343
0.960767 0.258655 -0.0736713
0.818878 0.0265272 0.185462
0.62166 0.00290669 0.104276
0.860123 -0.18465 -0.237616
0.654937 -0.221865 -0.0707565
0.875887 0.0943369 0.0763293
1.04751 -0.0487257 -0.210023
1.01661 0.190127 -0.146995
1.1761 0.153911 -0.187997
0.887993 -0.0562801 -0.143437
0.658147 -0.233721 -0.0879408
0.422143 -0.0922591 0.0492055
0.865164 0.142614 0.1508
0.641916 -0.209421 -0.039691
0.755569 -0.247674 0.00559908
1.1364 0.147454 -0.18296
0.44114 -0.0878403 0.0316636
0.547582 -0.12865 0.0277682
1.13554 0.142493 -0.247923
0.818744 0.117916 0.163954
0.987433 0.422405 0.21966
0.468417 -0.281563 0.126448
0.578359 -0.350906 -0.105259
0.580432 -0.352467 -0.105439
0.582925 -0.353522 -0.10565
0.506337 -0.261486 0.106622
0.51467 -0.277913 0.0244043
0.563753 -0.298554 -0.0324344
0.575184 -0.324332 -0.102296
0.503523 -0.259891 0.105916
0.561243 -0.314366 -0.0494131
0.505604 -0.26111 0.106501
0.53308 -0.240557 0.0473825
0.53053 -0.290491 0.0264749
0.552202 -0.303796 -0.0335836
0.558008 -0.295555 -0.0326702
0.526038 -0.12571 0.0259488
0.577293 -0.0330743 0.0806144
0.816415 0.0301406 0.063161
0.548831 -0.165553 0.023809
0.923792 0.252148 0.165141
0.896647 0.0637833 -0.00602463
1.02525 0.043958 -0.117582
1.12148 0.32548 -0.0658487
0.953676 0.054546 -0.0521627
1.10437 0.319726 -0.0667154
0.791722 0.118755 0.176358
0.564227 -0.346474 -0.07282
0.803538 0.252817 0.269368
0.838172 0.156886 0.200805
0.95186 -0.0487379 -0.0955864
1.04785 0.212374 -0.145465
1.0799 0.147232 -0.154659
1.10276 0.322473 -0.0683572
0.83962 0.153691 0.190301
1.23967 0.169397 -0.325254
0.867492 -0.153026 -0.22106
0.946083 0.428825 0.259727
0.866869 0.334582 0.054687
0.859901 0.141494 0.149176
0.991375 0.368035 -0.186487
0.946595 0.0651908 -0.0372489
0.522807 -0.286459 0.0418723
0.525379 -0.233017 0.11183
0.498718 -0.251743 0.0989931
0.549663 -0.301473 -0.0326819
0.496281 -0.255487 0.103337
0.559745 -0.306911 -0.0342349
0.779423 0.131893 0.214619
0.825824 -0.216425 -0.0457862
0.884428 0.12419 0.0941082
0.801126 -0.206778 -0.0473618
0.649141 -0.0349377 0.0904991
0.770735 0.161013 0.271313
0.572228 -0.271221 0.103387
0.728243 -0.237982 0.00664538
0.690604 -0.223137 0.00794846
0.523943 -0.0880483 -0.0769239
0.249661 -0.116259 0.053434
1.06105 0.217671 -0.14772
1.07679 0.363776 -0.0780069
0.777764 0.269411 0.217206
1.03373 0.31932 0.0136258
0.595965 0.0171692 0.173041
0.762161 0.15866 0.268971
0.892784 -0.189701 0.0783764
0.764641 -0.00643284 0.0481688
0.636432 -0.192107 -0.132067
1.04725 0.360855 -0.201648
0.560297 0.000663774 0.162823
0.864351 0.333014 0.0783068
1.01005 0.385806 0.0172388
0.511629 -0.266279 0.077658
0.744884 0.00366155 0.0796763
0.956847 0.365791 0.0669769
1.23021 0.447535 -0.127821
0.384632 -0.0184654 0.0491253
0.934714 0.338097 0.242493
0.720724 0.0846255 0.206178
0.952901 -0.0086384 -0.0951006
0.873896 0.170091 -0.0803326
0.919906 -0.131093 -0.14061
0.560901 -0.3434 -0.0725274
0.448611 -0.258351 0.119783
1.04707 0.00248349 -0.229856
0.788388 0.134668 0.216881
0.890195 0.32155 0.232368
0.754738 0.128137 0.206848
0.581214 -0.342045 -0.0924709
0.583936 -0.343728 -0.0931435
0.481347 -0.159557 0.0878665
0.906005 0.19294 0.117968
0.802282 0.251823 0.268188
0.862909 0.091276 0.0755475
0.946067 0.345099 0.0831389
1.10575 0.0491651 -0.24298
0.51878 -0.278133 0.0536114
0.569099 -0.320401 -0.0548656
1.03383 0.203762 -0.17753
0.489921 -0.175581 0.0914818
1.03542 0.20385 -0.178072
0.805311 -0.00861234 0.0519789
0.844698 0.0993107 0.108827
0.660316 0.0083693 0.190451
0.847099 0.141415 0.154787
0.949798 -0.00836531 -0.0960099
0.41731 -0.168888 0.133589
0.777648 0.212313 0.222959
0.850733 0.270692 0.285044
0.52936 -0.235797 0.0607841
0.694426 0.0613393 0.14479
0.43503 -0.10202 0.0563381
0.938597 0.0483612 -0.056104
0.94991 0.0480947 -0.0572208
0.785902 0.128315 0.206379
0.535738 -0.283484 -0.0246835
0.544989 -0.329086 -0.0695964
0.97976 0.0466698 -0.0806683
0.761879 0.0221527 0.0687792
1.04059 -0.015458 -0.173234
0.991439 0.228739 0.0321614
0.907141 0.114116 0.0522581
0.860458 0.144267 0.156872
0.554499 -0.260407 0.0266816
0.523817 -0.243807 0.0870818
1.11355 0.377106 -0.0804642
1.0828 0.365376 -0.0779137
0.519326 -0.27222 0.039528
0.439826 -0.101617 0.0998536
1.05258 -0.0156004 -0.176253
0.449104 -0.105132 0.10189
0.860647 0.357176 0.298318
0.779558 0.122928 0.192737
0.734874 0.00371368 0.0787159
0.472498 -0.112116 0.109269
0.775622 0.0343601 0.108431
0.521493 -0.241863 0.085086
0.883465 0.0943315 0.0761368
0.85528 0.0951889 0.0815239
0.384227 -0.0557358 0.0857727
0.7441 0.0758783 0.193194
1.16909 0.362016 0.0150963
0.939405 0.111101 0.0268778
0.73479 -0.0691997 0.0364611
0.820887 0.0641878 0.061747
0.87446 -0.139744 -0.0616009
1.00379 0.0484456 -0.0814968
0.839202 0.067042 0.0636357
0.975163 -0.00807284 -0.100312
1.12965 0.173677 -0.178712
0.520832 -0.2877 0.0207568
0.595316 -0.361162 -0.107768
0.483857 -0.289668 0.0865216
0.632391 -0.000659317 0.18891
0.825164 0.260725 0.27628
0.857612 0.238603 0.24686
0.938675 0.39184 0.329161
0.983189 0.226365 0.0331039
0.966027 0.188752 -0.0913735
0.745947 0.0579441 0.173963
0.739038 0.0319722 0.103158
0.930362 -0.0196506 -0.10937
0.727291 0.0357212 0.194367
1.0075 0.042328 -0.115108
0.914247 0.240154 0.161707
1.08396 0.227869 -0.0284221
0.531024 -0.24838 0.088577
0.994532 0.195439 -0.0920444
0.775598 -0.274525 0.272863
0.763607 0.229627 0.258
0.694079 -0.273281 0.14004
0.564935 0.0173977 0.179177
0.961053 0.0468871 -0.0760324
0.781636 -0.22608 0.106427
0.666697 -0.262323 0.134158
0.863047 0.104003 0.111256
0.452349 -0.222161 0.0875198
0.747962 -0.108141 0.118919
0.768268 -0.0922656 0.0403991
0.897264 0.0784735 0.0207568
0.820012 -0.00304049 0.011908
0.862359 0.228525 0.152321
0.74665 -0.0146884 0.0969292
0.793985 0.135791 0.219124
0.918136 -0.076849 -0.0890594
0.758918 -0.20603 0.10483
0.851185 -0.11909 -0.0734662
0.565402 -0.298427 -0.0329091
0.512378 -0.248324 0.0967831
0.843709 -0.134147 -0.0602033
0.998272 0.231701 0.0309137
0.763005 -0.00720782 0.0509888
0.524702 -0.23189 0.0651066
0.544544 -0.264451 -0.00694995
0.473767 -0.269562 0.119345
1.08647 0.0296529 -0.197901
0.794595 0.0346535 0.078189
0.722096 0.00808637 0.157076
1.04603 0.323799 0.0135067
0.740182 0.147552 0.105038
0.441516 -0.261779 0.1177
0.446635 -0.244159 0.132673
0.431909 -0.275588 0.123785
1.05668 0.382602 0.0955967
0.686991 0.0592127 0.142003
0.644917 -0.000951814 0.190924
1.15978 0.341682 -0.0705904
0.51184 -0.26755 0.039185
0.58664 -0.298549 -0.0406828
0.407871 -0.215014 0.140125
0.457753 -0.281423 0.0798624
0.410068 -0.164946 0.130365
0.632948 -0.317743 -0.00647711
0.811821 -0.200473 0.00296133
0.725977 -0.200631 0.110097
0.89056 0.321526 0.275632
1.33481 0.463015 -0.198296
0.856638 -0.138869 -0.0600093
0.881057 0.321649 0.278078
1.33561 0.463486 -0.197893
0.939841 -0.0614957 -0.157283
0.555393 -0.335086 -0.0785508
1.00592 0.151772 -0.00575839
0.715009 0.0338686 0.0933728
0.718907 0.0551302 0.124069
0.858335 -0.227317 -0.0472236
0.714905 -0.00587285 0.14509
0.72873 -0.247597 -0.0161786
0.864658 -0.230109 -0.0572836
0.540984 -0.256962 0.0507826
0.598591 -0.263702 0.109257
0.777476 -0.0522195 0.00488677
0.710064 -0.235463 -0.0146179
0.934202 0.0463588 -0.0577709
0.992125 0.18105 0.0584863
0.862621 0.124327 0.104013
0.773987 -0.164129 0.105918
0.762982 0.0666775 0.193404
0.55867 0.0382467 0.18728
0.53529 0.0322369 0.201951
0.689056 -0.23026 0.0799573
0.640011 -0.318863 0.0543719
0.609081 -0.269825 -0.00649073
0.762803 0.0243324 0.0985925
0.838165 0.293499 0.238018
0.993661 0.0234596 -0.144853
1.04063 0.30472 -0.0589181
0.512451 -0.164062 0.125678
0.411162 -0.261896 0.132292
0.411218 -0.262024 0.132097
0.576159 -0.334583 -0.103019
0.511935 -0.281673 0.0210304
0.459294 -0.269972 0.0807419
0.838646 0.179995 0.221061
0.463663 -0.286642 0.0812324
0.543903 -0.245282 0.0536123
0.563035 -0.28387 -0.0417174
0.699431 -0.288905 -0.0510381
0.616882 -0.0390514 0.0804799
0.920704 0.196439 0.120237
1.18337 0.226223 -0.0651819
0.870189 -0.0389988 -0.0856036
0.818383 0.139176 0.11616
1.0663 0.197095 0.0658556
0.887215 -0.0393113 -0.0878135
0.758511 0.0372893 0.0997992
0.87389 -0.0392918 -0.0855835
0.841835 -0.0792865 -0.0207289
0.500546 -0.12891 0.0601546
0.847296 0.0657632 0.0762505
0.920955 0.076346 0.00797236
1.06568 0.141089 0.00231857
0.840308 0.165067 0.212392
0.473755 -0.100622 0.0773449
1.07591 0.112147 -0.178726
0.907638 0.149895 0.106155
0.946266 0.345974 0.222524
1.1958 0.41061 -0.233007
1.16333 -0.031234 -0.383381
1.1052 0.147954 -0.158213
0.715432 -0.0517552 0.103011
1.14807 0.0517345 -0.361904
0.676221 0.00552007 0.200196
1.0858 0.456511 -0.210732
1.12523 0.516054 0.154758
1.06814 -0.207298 -0.14748
0.92702 0.251477 -0.0739337
0.761638 -0.249072 -0.109688
1.07423 0.210619 -0.185519
